<?xml version="1.0" standalone="no"?>
<!DOCTYPE svg PUBLIC "-//W3C//DTD SVG 20010904//EN"
 "http://www.w3.org/TR/2001/REC-SVG-20010904/DTD/svg10.dtd">
<svg version="1.0" xmlns="http://www.w3.org/2000/svg"
 width="1030.000000pt" height="233.000000pt" viewBox="0 0 1030.000000 233.000000"
 preserveAspectRatio="xMidYMid meet">

<g transform="translate(0.000000,233.000000) scale(0.100000,-0.100000)"
fill="#000000" stroke="none">
<path d="M5217 1783 c-4 -3 -7 -59 -7 -124 l0 -118 -52 -3 -53 -3 0 -85 0 -85
53 -3 52 -3 2 -77 c1 -42 2 -168 2 -279 1 -111 4 -204 8 -208 4 -4 54 -10 112
-12 l106 -6 0 292 0 291 55 0 55 0 0 90 0 90 -55 0 -55 0 0 125 0 125 -108 0
c-60 0 -112 -3 -115 -7z"/>
<path d="M1632 1580 c-2 -46 1 -70 8 -70 6 0 8 -4 5 -10 -4 -6 19 -10 61 -10
l67 0 -7 -62 c-4 -35 -21 -101 -38 -148 -91 -255 -101 -318 -74 -459 22 -112
21 -131 -4 -131 -14 0 -20 -7 -20 -21 0 -11 -4 -17 -10 -14 -5 3 -10 1 -10 -4
0 -7 23 -11 55 -11 43 0 57 4 62 17 4 9 -4 78 -16 153 -28 165 -23 201 52 400
49 132 51 138 51 245 1 62 -5 129 -12 153 l-13 42 -77 0 -78 0 -2 -70z"/>
<path d="M1100 1615 c-13 -14 -34 -25 -46 -25 -28 0 -54 -25 -54 -51 0 -25
-47 -89 -73 -98 -19 -7 -19 -8 -1 -26 13 -13 15 -20 6 -23 -6 -2 -12 -12 -12
-22 0 -16 9 -19 52 -22 l52 -3 -57 -61 c-31 -34 -57 -64 -57 -68 0 -3 9 -6 19
-6 11 0 64 47 127 113 l107 112 -98 3 -98 3 28 29 c16 17 36 30 45 30 21 0 50
31 50 54 0 9 12 28 28 41 19 17 24 27 16 34 -7 8 -17 4 -34 -14z"/>
<path d="M2916 1535 c-106 -43 -166 -123 -166 -220 0 -100 65 -182 165 -210
30 -8 79 -22 108 -30 75 -21 99 -40 95 -78 -2 -26 -10 -34 -40 -45 -30 -12
-41 -12 -65 0 -15 7 -32 23 -38 36 -9 21 -15 22 -124 22 l-113 0 6 -32 c25
-131 144 -218 296 -218 175 0 310 112 310 257 0 115 -56 173 -215 223 -123 38
-157 60 -153 98 6 51 99 56 118 7 9 -25 12 -25 121 -25 l111 0 -7 37 c-24 128
-127 203 -278 203 -53 0 -88 -7 -131 -25z"/>
<path d="M3779 1551 c-41 -13 -72 -31 -106 -64 l-33 -31 0 42 0 42 -105 0
-105 0 0 -505 0 -506 113 3 112 3 3 152 3 151 55 -33 c130 -78 305 -53 418 61
110 109 142 280 86 449 -38 111 -117 193 -223 229 -50 17 -172 20 -218 7z
m155 -232 c133 -91 100 -294 -55 -340 -79 -24 -171 18 -208 94 -51 106 -8 221
100 267 37 16 127 4 163 -21z"/>
<path d="M4585 1546 c-137 -43 -221 -124 -265 -257 -28 -82 -24 -205 10 -292
27 -71 113 -163 183 -195 163 -76 364 -45 482 73 169 168 148 469 -43 610 -91
67 -259 95 -367 61z m188 -212 c72 -37 107 -94 107 -176 -1 -154 -166 -239
-284 -147 -73 57 -89 189 -32 264 51 66 143 92 209 59z"/>
<path d="M76 1338 c-59 -297 55 -678 278 -925 l56 -61 0 -147 c0 -114 3 -146
13 -142 6 2 73 24 148 47 l137 43 83 -31 c93 -33 207 -57 316 -67 134 -11 346
23 461 76 46 21 52 28 52 53 0 23 -3 27 -12 18 -7 -7 -18 -12 -25 -12 -7 0
-32 -9 -56 -19 -116 -52 -405 -74 -552 -43 -71 16 -200 57 -234 76 -20 11 -38
8 -143 -26 -66 -21 -122 -38 -124 -38 -2 0 -4 53 -4 118 l0 117 -61 65 c-195
208 -294 467 -287 752 1 64 -1 120 -5 124 -4 4 -7 12 -7 18 0 6 5 4 10 -4 8
-13 10 -12 10 3 0 10 -7 17 -17 17 -15 0 -16 2 -3 10 12 8 11 10 -6 10 -16 0
-23 -8 -28 -32z"/>
<path d="M1593 1345 c0 -8 4 -12 9 -9 4 3 8 9 8 15 0 5 -4 9 -8 9 -5 0 -9 -7
-9 -15z"/>
<path d="M890 1197 c0 -19 16 -31 24 -18 3 5 -1 14 -9 21 -12 10 -15 10 -15
-3z"/>
<path d="M6221 1088 c-1 -27 -6 -38 -16 -38 -13 0 -15 -21 -15 -130 l0 -130
45 0 45 0 0 94 c0 131 -9 187 -29 184 -10 -2 -18 7 -22 27 -6 29 -7 29 -8 -7z"/>
<path d="M6404 1089 c3 -17 6 -38 6 -45 0 -9 11 -14 27 -14 25 0 25 -1 9 -13
-17 -13 -17 -15 -1 -46 24 -48 90 -116 138 -144 97 -57 203 -70 305 -39 133
42 241 161 266 295 7 38 0 46 -23 25 -11 -10 -13 -10 -7 0 5 8 -2 12 -23 12
-33 0 -42 -14 -16 -24 21 -8 19 -38 -2 -34 -11 2 -24 -13 -41 -44 -95 -184
-326 -222 -470 -78 -21 21 -46 56 -56 78 -12 26 -24 39 -34 37 -10 -1 -11 0
-4 2 7 3 11 17 10 34 -2 27 -5 29 -46 29 -44 0 -44 0 -38 -31z"/>
<path d="M8842 1019 c-24 -50 -45 -78 -79 -104 -154 -118 -389 -62 -459 108
-19 47 -19 47 -66 47 l-48 0 0 -270 0 -270 45 0 45 0 0 190 c0 105 2 190 5
190 3 0 21 -18 41 -40 50 -55 125 -90 210 -97 165 -13 314 69 388 216 27 53
35 94 15 74 -11 -11 -44 0 -59 18 -3 4 -20 -24 -38 -62z"/>
<path d="M5630 930 l0 -140 45 0 45 0 0 124 c0 68 -3 131 -6 140 -4 11 -19 16
-45 16 l-39 0 0 -140z"/>
<path d="M7328 1063 l-38 -4 0 -265 0 -264 45 0 45 0 0 191 0 192 50 -47 c64
-60 122 -86 208 -93 178 -15 356 101 406 265 7 20 4 22 -34 22 -25 0 -39 -4
-35 -10 3 -5 0 -10 -8 -10 -8 0 -20 -14 -27 -30 -18 -43 -87 -110 -140 -134
-70 -33 -187 -29 -262 7 -64 31 -109 79 -135 144 -10 24 -22 42 -28 41 -5 -1
-27 -3 -47 -5z m47 -23 c3 -5 1 -10 -4 -10 -6 0 -11 5 -11 10 0 6 2 10 4 10 3
0 8 -4 11 -10z"/>
<path d="M9059 1042 c29 -98 108 -187 209 -235 60 -29 77 -32 157 -32 77 0 98
4 150 28 33 15 80 47 104 70 41 40 101 122 101 139 0 4 -21 8 -47 8 -45 -1
-49 -3 -73 -41 -44 -72 -148 -129 -235 -129 -88 0 -202 64 -246 137 -38 64
-60 83 -95 83 -31 0 -32 -1 -25 -28z"/>
<path d="M9930 930 l0 -140 50 0 50 0 0 140 0 140 -50 0 -50 0 0 -140z"/>
<path d="M900 681 c0 -5 -3 -16 -6 -24 -4 -13 1 -14 31 -7 38 9 56 19 37 21
-26 3 -31 4 -38 12 -10 10 -24 9 -24 -2z"/>
<path d="M1646 221 c-3 -5 8 -14 26 -20 39 -14 38 -14 38 3 0 22 -53 36 -64
17z"/>
</g>
</svg>
